# xmcd
#
# Track frame offsets: 
#        150
#        13072
#        37122
#        48647
#        60367
#        77157
#        93387
#        103035
#        117617
#        132837
#        149607
#        158372
#        171407
#        212870
#        243307
#
# Disc length: 3758 seconds
#
# Revision: 0
# Processed by: cddbd v1.5.2PL0 Copyright (c) Steve Scherf et al.
# Submitted via: ExactAudioCopy v0.95b4
#
DISCID=d50eac0f
DTITLE=Geoffrey Tozer - Medtner - Piano works vol. 2
DYEAR=1993
DGENRE=Classical
TTITLE0=Forgotten Melodies Op. 38: Danza Graziosa
TTITLE1=Forgotten Melodies Op. 38: Danza Festiva
TTITLE2=Forgotten Melodies Op. 38: Canzona Fluviala
TTITLE3=Forgotten Melodies Op. 38: Danza Rustica
TTITLE4=Forgotten Melodies Op. 38: Canzona Serenata
TTITLE5=Forgotten Melodies Op. 38: Danza Silvestra
TTITLE6=Forgotten Melodies Op. 38: Alla Reminiscenza
TTITLE7=Fairy Tales Op. 51: No. 2 in a minor
TTITLE8=Fairy Tales Op. 51: No. 3 in A Major
TTITLE9=Fairy Tales Op. 51: No. 4 in f-sharp minor
TTITLE10=Fairy Tales Op. 51: No. 5 in f-sharp minor
TTITLE11=Fairy Tales Op. 51: No. 6 in G Major
TTITLE12=Sonata Triad Op. 11: No. 1 in A-Flat Major
TTITLE13=Sonata Triad Op. 11: No. 2 in d minor
TTITLE14=Sonata Triad Op. 11: No. 3 in C Major
EXTD=
EXTT0=
EXTT1=
EXTT2=
EXTT3=
EXTT4=
EXTT5=
EXTT6=
EXTT7=
EXTT8=
EXTT9=
EXTT10=
EXTT11=
EXTT12=
EXTT13=
EXTT14=
PLAYORDER=
